<?xml version="1.0" encoding="UTF-8" standalone="no"?>
<svg
   width="215.89999mm"
   height="279.39999mm"
   viewBox="0 0 611.99998 791.99998"
   version="1.1"
   id="svg1"
   sodipodi:docname="inkscape_3x2_portrait_v1.svg"
   inkscape:version="1.4 (e7c3feb100, 2024-10-09)"
   xmlns:inkscape="http://www.inkscape.org/namespaces/inkscape"
   xmlns:sodipodi="http://sodipodi.sourceforge.net/DTD/sodipodi-0.dtd"
   xmlns="http://www.w3.org/2000/svg"
   xmlns:svg="http://www.w3.org/2000/svg">
  <sodipodi:namedview
     id="namedview1"
     pagecolor="#ffffff"
     bordercolor="#000000"
     borderopacity="0.25"
     inkscape:showpageshadow="2"
     inkscape:pageopacity="0.0"
     inkscape:pagecheckerboard="true"
     inkscape:deskcolor="#d1d1d1"
     inkscape:document-units="pt"
     showgrid="true"
     inkscape:zoom="1.125947"
     inkscape:cx="228.69638"
     inkscape:cy="496.91504"
     inkscape:window-width="2556"
     inkscape:window-height="1402"
     inkscape:window-x="2"
     inkscape:window-y="36"
     inkscape:window-maximized="1"
     inkscape:current-layer="svg1">
    <inkscape:grid
       id="grid1"
       units="in"
       originx="0"
       originy="0"
       spacingx="9"
       spacingy="9"
       empcolor="#0099e5"
       empopacity="0.30196078"
       color="#0099e5"
       opacity="0.14901961"
       empspacing="5"
       enabled="true"
       visible="true" />
  </sodipodi:namedview>
  <g
     inkscape:groupmode="layer"
     id="regmark"
     inkscape:label="Regmarks"
     transform="scale(2.83465, 2.83465)"
     sodipodi:insensitive="true">
    <rect
       x="10.0"
       y="10.0"
       width="5"
       height="5"
       id="regmark-tl"
       style="fill:black" />
    <path
       d="M 185.9 10 L 205.9 10 L 205.9 30"
       id="regmark-tr"
       style="fill:none;stroke:black;stroke-width:1.0" />
    <path
       d="M 30 235 L 10 235 L 10 215"
       id="regmark-bl"
       style="fill:none;stroke:black;stroke-width:1.0" />
    <path
       d="M 10 30 L 30 30 L 30 10 L 185.9 10 L 185.9 30 L 205.9 30 L 205.9 235 L 30 235 L 30 215 L 10 215 Z"
       id="regmark-safe-area"
       style="fill:white;stroke:none" />
    <text
       x="23.0"
       y="261.9"
       id="regmark-notes"
       style="font-size:2.5px;">mark distance from document: Left=10.0mm, Top=10.0mm; mark to mark distance: X=195.9mm, Y=225.0mm; arms=20mm, thickness=1mm</text>
  </g>
  <defs
     id="defs1" />
  <path
     id="Path0"
     stroke-width="0.7"
     stroke="#ff0000"
     stroke-opacity="1"
     fill="none"
     fill-opacity="0"
     stroke-linecap="round"
     stroke-linejoin="round"
     d="m 38.16,107.32 c 0,-8.2 3.69,-8.2 8.2,-8.2 l 162.16,0 c 4.51,0 8.2,3.69 8.2,8.2 l 0,232.72 c 0,4.51 -3.69,8.2 -8.2,8.2 l -162.16,0 c -4.51,0 -8.2,-3.69 -8.2,-8.2 z" />
  <path
     id="Path1"
     stroke-width="0.7"
     stroke="#ff0000"
     stroke-opacity="1"
     fill="none"
     fill-opacity="0"
     stroke-linecap="round"
     stroke-linejoin="round"
     d="m 216.72,107.32 c 0,-8.2 3.69,-8.2 8.2,-8.2 l 162.16,0 c 4.51,0 8.2,3.69 8.2,8.2 l 0,232.72 c 0,4.51 -3.69,8.2 -8.2,8.2 l -162.16,0 c -4.51,0 -8.2,-3.69 -8.2,-8.2 z" />
  <path
     id="Path2"
     stroke-width="0.7"
     stroke="#ff0000"
     stroke-opacity="1"
     fill="none"
     fill-opacity="0"
     stroke-linecap="round"
     stroke-linejoin="round"
     d="m 395.28,107.32 c 0,-8.2 3.69,-8.2 8.2,-8.2 l 162.16,0 c 4.51,0 8.2,3.69 8.2,8.2 l 0,232.72 c 0,4.51 -3.69,8.2 -8.2,8.2 l -162.16,0 c -4.51,0 -8.2,-3.69 -8.2,-8.2 z" />
  <path
     id="Path3"
     stroke-width="0.7"
     stroke="#ff0000"
     stroke-opacity="1"
     fill="none"
     fill-opacity="0"
     stroke-linecap="round"
     stroke-linejoin="round"
     d="m 38.16,356.44 c 0,-8.2 3.69,-8.2 8.2,-8.2 l 162.16,0 c 4.51,0 8.2,3.69 8.2,8.2 l 0,232.72 c 0,4.51 -3.69,8.2 -8.2,8.2 l -162.16,0 c -4.51,0 -8.2,-3.69 -8.2,-8.2 z" />
  <path
     id="Path4"
     stroke-width="0.7"
     stroke="#ff0000"
     stroke-opacity="1"
     fill="none"
     fill-opacity="0"
     stroke-linecap="round"
     stroke-linejoin="round"
     d="m 216.72,356.44 c 0,-8.2 3.69,-8.2 8.2,-8.2 l 162.16,0 c 4.51,0 8.2,3.69 8.2,8.2 l 0,232.72 c 0,4.51 -3.69,8.2 -8.2,8.2 l -162.16,0 c -4.51,0 -8.2,-3.69 -8.2,-8.2 z" />
  <path
     id="Path5"
     stroke-width="0.7"
     stroke="#ff0000"
     stroke-opacity="1"
     fill="none"
     fill-opacity="0"
     stroke-linecap="round"
     stroke-linejoin="round"
     d="m 395.28,356.44 c 0,-8.2 3.69,-8.2 8.2,-8.2 l 162.16,0 c 4.51,0 8.2,3.69 8.2,8.2 l 0,232.72 c 0,4.51 -3.69,8.2 -8.2,8.2 l -162.16,0 c -4.51,0 -8.2,-3.69 -8.2,-8.2 z" />
</svg>
