<?xml version="1.0" encoding="UTF-8" standalone="no"?>
<svg
   width="215.9mm"
   height="279.4mm"
   viewBox="0 0 215.9 279.4"
   version="1.1"
   id="svg8"
   xmlns="http://www.w3.org/2000/svg"
   xmlns:svg="http://www.w3.org/2000/svg">
  <defs
     id="defs2" />
  
  <!-- Visual Reference Marks matching the printed JPEGs (5mm offset) -->
  <!-- Top Left Square (5mm x 5mm at offset 5mm) -->
  <rect
     style="fill:#000000;stroke:none"
     id="TL_Square"
     width="5"
     height="5"
     x="5"
     y="5" />

  <!-- Top Right L-bracket (outer corner 210.9mm, 5mm) with 15mm arms -->
  <path
     style="fill:#000000;stroke:none"
     id="TR_LBracket"
     d="M 195.9,5 L 210.9,5 L 210.9,20 L 209.4,20 L 209.4,6.5 L 195.9,6.5 Z" />

  <!-- Bottom Left L-bracket (outer corner 5mm, 254mm) with 15mm arms -->
  <path
     style="fill:#000000;stroke:none"
     id="BL_LBracket"
     d="M 20,254 L 5,254 L 5,239 L 6.5,239 L 6.5,252.5 L 20,252.5 Z" />

  <!-- Template Description Note -->
  <text
     xml:space="preserve"
     style="font-size:3px;font-family:sans-serif;fill:#666666;stroke:none;"
     x="15"
     y="270"
     id="template_note">Hard coded tabs (1pt gaps) at center of edges</text>

  <!-- transform_svg.py will inject Path0 through Path7 paths here -->

  <path id="Path0" d="M 72.36,14.30 C 73.64,15.74 74.42,17.64 74.42,19.71 M 74.42,19.71 L 74.42,55.37 M 74.42,55.37 L 74.42,91.03 M 74.42,91.03 C 74.42,93.10 73.64,95.00 72.36,96.45 M 71.64,97.17 C 70.19,98.45 68.29,99.23 66.22,99.23 M 66.22,99.23 L 43.01,99.23 M 43.01,99.23 L 19.80,99.23 M 19.80,99.23 C 17.73,99.23 15.83,98.45 14.38,97.17 M 13.66,96.45 C 12.38,95.00 11.60,93.10 11.60,91.03 M 11.60,91.03 L 11.60,55.37 M 11.60,55.37 L 11.60,19.71 M 11.60,19.71 C 11.60,17.64 12.38,15.74 13.66,14.30 M 14.38,13.57 C 15.83,12.29 17.73,11.51 19.80,11.51 M 19.80,11.51 L 43.01,11.51 M 43.01,11.51 L 66.22,11.51 M 66.22,11.51 C 68.29,11.51 70.19,12.29 71.64,13.57" style="fill:none;fill-opacity:0;stroke:#ff0000;stroke-linecap:round;stroke-linejoin:round;stroke-opacity:1" />
  <path id="Path1" d="M 137.30,14.30 C 138.58,15.74 139.36,17.64 139.36,19.71 M 139.36,19.71 L 139.36,55.37 M 139.36,55.37 L 139.36,91.03 M 139.36,91.03 C 139.36,93.10 138.58,95.00 137.30,96.45 M 136.58,97.17 C 135.13,98.45 133.23,99.23 131.16,99.23 M 131.16,99.23 L 107.95,99.23 M 107.95,99.23 L 84.74,99.23 M 84.74,99.23 C 82.67,99.23 80.77,98.45 79.32,97.17 M 78.60,96.45 C 77.32,95.00 76.54,93.10 76.54,91.03 M 76.54,91.03 L 76.54,55.37 M 76.54,55.37 L 76.54,19.71 M 76.54,19.71 C 76.54,17.64 77.32,15.74 78.60,14.30 M 79.32,13.57 C 80.77,12.29 82.67,11.51 84.74,11.51 M 84.74,11.51 L 107.95,11.51 M 107.95,11.51 L 131.16,11.51 M 131.16,11.51 C 133.23,11.51 135.13,12.29 136.58,13.57" style="fill:none;fill-opacity:0;stroke:#ff0000;stroke-linecap:round;stroke-linejoin:round;stroke-opacity:1" />
  <path id="Path2" d="M 202.24,14.30 C 203.52,15.74 204.30,17.64 204.30,19.71 M 204.30,19.71 L 204.30,55.37 M 204.30,55.37 L 204.30,91.03 M 204.30,91.03 C 204.30,93.10 203.52,95.00 202.24,96.45 M 201.52,97.17 C 200.07,98.45 198.17,99.23 196.10,99.23 M 196.10,99.23 L 172.89,99.23 M 172.89,99.23 L 149.68,99.23 M 149.68,99.23 C 147.61,99.23 145.71,98.45 144.26,97.17 M 143.54,96.45 C 142.26,95.00 141.48,93.10 141.48,91.03 M 141.48,91.03 L 141.48,55.37 M 141.48,55.37 L 141.48,19.71 M 141.48,19.71 C 141.48,17.64 142.26,15.74 143.54,14.30 M 144.26,13.57 C 145.71,12.29 147.61,11.51 149.68,11.51 M 149.68,11.51 L 172.89,11.51 M 172.89,11.51 L 196.10,11.51 M 196.10,11.51 C 198.17,11.51 200.07,12.29 201.52,13.57" style="fill:none;fill-opacity:0;stroke:#ff0000;stroke-linecap:round;stroke-linejoin:round;stroke-opacity:1" />
  <path id="Path3" d="M 72.36,104.13 C 73.64,105.58 74.42,107.47 74.42,109.55 M 74.42,109.55 L 74.42,145.20 M 74.42,145.20 L 74.42,180.86 M 74.42,180.86 C 74.42,182.93 73.64,184.83 72.36,186.28 M 71.64,187.00 C 70.19,188.28 68.29,189.06 66.22,189.06 M 66.22,189.06 L 43.01,189.06 M 43.01,189.06 L 19.80,189.06 M 19.80,189.06 C 17.73,189.06 15.83,188.28 14.38,187.00 M 13.66,186.28 C 12.38,184.83 11.60,182.93 11.60,180.86 M 11.60,180.86 L 11.60,145.20 M 11.60,145.20 L 11.60,109.55 M 11.60,109.55 C 11.60,107.47 12.38,105.58 13.66,104.13 M 14.38,103.40 C 15.83,102.12 17.73,101.35 19.80,101.35 M 19.80,101.35 L 43.01,101.35 M 43.01,101.35 L 66.22,101.35 M 66.22,101.35 C 68.29,101.35 70.19,102.12 71.64,103.40" style="fill:none;fill-opacity:0;stroke:#ff0000;stroke-linecap:round;stroke-linejoin:round;stroke-opacity:1" />
  <path id="Path4" d="M 137.30,104.13 C 138.58,105.58 139.36,107.47 139.36,109.55 M 139.36,109.55 L 139.36,145.20 M 139.36,145.20 L 139.36,180.86 M 139.36,180.86 C 139.36,182.93 138.58,184.83 137.30,186.28 M 136.58,187.00 C 135.13,188.28 133.23,189.06 131.16,189.06 M 131.16,189.06 L 107.95,189.06 M 107.95,189.06 L 84.74,189.06 M 84.74,189.06 C 82.67,189.06 80.77,188.28 79.32,187.00 M 78.60,186.28 C 77.32,184.83 76.54,182.93 76.54,180.86 M 76.54,180.86 L 76.54,145.20 M 76.54,145.20 L 76.54,109.55 M 76.54,109.55 C 76.54,107.47 77.32,105.58 78.60,104.13 M 79.32,103.40 C 80.77,102.12 82.67,101.35 84.74,101.35 M 84.74,101.35 L 107.95,101.35 M 107.95,101.35 L 131.16,101.35 M 131.16,101.35 C 133.23,101.35 135.13,102.12 136.58,103.40" style="fill:none;fill-opacity:0;stroke:#ff0000;stroke-linecap:round;stroke-linejoin:round;stroke-opacity:1" />
  <path id="Path5" d="M 202.24,104.13 C 203.52,105.58 204.30,107.47 204.30,109.55 M 204.30,109.55 L 204.30,145.20 M 204.30,145.20 L 204.30,180.86 M 204.30,180.86 C 204.30,182.93 203.52,184.83 202.24,186.28 M 201.52,187.00 C 200.07,188.28 198.17,189.06 196.10,189.06 M 196.10,189.06 L 172.89,189.06 M 172.89,189.06 L 149.68,189.06 M 149.68,189.06 C 147.61,189.06 145.71,188.28 144.26,187.00 M 143.54,186.28 C 142.26,184.83 141.48,182.93 141.48,180.86 M 141.48,180.86 L 141.48,145.20 M 141.48,145.20 L 141.48,109.55 M 141.48,109.55 C 141.48,107.47 142.26,105.58 143.54,104.13 M 144.26,103.40 C 145.71,102.12 147.61,101.35 149.68,101.35 M 149.68,101.35 L 172.89,101.35 M 172.89,101.35 L 196.10,101.35 M 196.10,101.35 C 198.17,101.35 200.07,102.12 201.52,103.40" style="fill:none;fill-opacity:0;stroke:#ff0000;stroke-linecap:round;stroke-linejoin:round;stroke-opacity:1" />
  <path id="Path6" d="M 107.67,193.96 C 108.95,195.41 109.73,197.31 109.73,199.38 M 109.73,199.38 L 109.73,222.59 M 109.73,222.59 L 109.73,245.80 M 109.73,245.80 C 109.73,247.87 108.95,249.77 107.67,251.22 M 106.95,251.94 C 105.50,253.22 103.60,254.00 101.53,254.00 M 101.53,254.00 L 65.87,254.00 M 65.87,254.00 L 30.21,254.00 M 30.21,254.00 C 28.14,254.00 26.24,253.22 24.80,251.94 M 24.07,251.22 C 22.79,249.77 22.01,247.87 22.01,245.80 M 22.01,245.80 L 22.01,222.59 M 22.01,222.59 L 22.01,199.38 M 22.01,199.38 C 22.01,197.31 22.79,195.41 24.07,193.96 M 24.80,193.23 C 26.24,191.96 28.14,191.18 30.21,191.18 M 30.21,191.18 L 65.87,191.18 M 65.87,191.18 L 101.53,191.18 M 101.53,191.18 C 103.60,191.18 105.50,191.96 106.95,193.23" style="fill:none;fill-opacity:0;stroke:#ff0000;stroke-linecap:round;stroke-linejoin:round;stroke-opacity:1" />
  <path id="Path7" d="M 197.50,193.96 C 198.78,195.41 199.56,197.31 199.56,199.38 M 199.56,199.38 L 199.56,222.59 M 199.56,222.59 L 199.56,245.80 M 199.56,245.80 C 199.56,247.87 198.78,249.77 197.50,251.22 M 196.78,251.94 C 195.33,253.22 193.43,254.00 191.36,254.00 M 191.36,254.00 L 155.70,254.00 M 155.70,254.00 L 120.04,254.00 M 120.04,254.00 C 117.97,254.00 116.07,253.22 114.63,251.94 M 113.90,251.22 C 112.62,249.77 111.84,247.87 111.84,245.80 M 111.84,245.80 L 111.84,222.59 M 111.84,222.59 L 111.84,199.38 M 111.84,199.38 C 111.84,197.31 112.62,195.41 113.90,193.96 M 114.63,193.23 C 116.07,191.96 117.97,191.18 120.04,191.18 M 120.04,191.18 L 155.70,191.18 M 155.70,191.18 L 191.36,191.18 M 191.36,191.18 C 193.43,191.18 195.33,191.96 196.78,193.23" style="fill:none;fill-opacity:0;stroke:#ff0000;stroke-linecap:round;stroke-linejoin:round;stroke-opacity:1" />
</svg>