<?xml version="1.0" encoding="UTF-8" standalone="no"?>
<svg
   width="215.89999mm"
   height="279.39999mm"
   viewBox="0 0 611.99998 791.99998"
   version="1.1"
   id="svg1"
   sodipodi:docname="inkscape_3x2_portrait_v1.0.svg"
   inkscape:version="1.4.4 (dcaf3e7d9e, 2026-05-05)"
   xmlns:inkscape="http://www.inkscape.org/namespaces/inkscape"
   xmlns:sodipodi="http://sodipodi.sourceforge.net/DTD/sodipodi-0.dtd"
   xmlns="http://www.w3.org/2000/svg"
   xmlns:svg="http://www.w3.org/2000/svg">
  <sodipodi:namedview
     id="namedview1"
     pagecolor="#ffffff"
     bordercolor="#000000"
     borderopacity="0.25"
     inkscape:showpageshadow="2"
     inkscape:pageopacity="0.0"
     inkscape:pagecheckerboard="true"
     inkscape:deskcolor="#d1d1d1"
     inkscape:document-units="pt"
     showgrid="true"
     inkscape:zoom="2.8351196"
     inkscape:cx="604.91275"
     inkscape:cy="777.03953"
     inkscape:window-width="1916"
     inkscape:window-height="1141"
     inkscape:window-x="0"
     inkscape:window-y="0"
     inkscape:window-maximized="0"
     inkscape:current-layer="svg1">
    <inkscape:grid
       id="grid1"
       units="in"
       originx="0"
       originy="0"
       spacingx="9"
       spacingy="9"
       empcolor="#0099e5"
       empopacity="0.30196078"
       color="#0099e5"
       opacity="0.14901961"
       empspacing="5"
       enabled="true"
       visible="true" />
  </sodipodi:namedview>
  <g
     inkscape:groupmode="layer"
     id="regmark"
     inkscape:label="Regmarks"
     transform="scale(2.83465, 2.83465)"
     sodipodi:insensitive="true">
    <rect
       x="10.0"
       y="10.0"
       width="5"
       height="5"
       id="regmark-tl"
       style="fill:black" />
    <path
       d="M 185.9 10 L 205.9 10 L 205.9 30"
       id="regmark-tr"
       style="fill:none;stroke:black;stroke-width:1.5" />
    <path
       d="M 30 247 L 10 247 L 10 227"
       id="regmark-bl"
       style="fill:none;stroke:black;stroke-width:1.5" />
    <path
       d="M 10 30 L 30 30 L 30 10 L 185.9 10 L 185.9 30 L 205.9 30 L 205.9 247 L 30 247 L 30 227 L 10 227 Z"
       id="regmark-safe-area"
       style="fill:white;stroke:none" />
    <text
       x="23.0"
       y="255.0"
       id="regmark-notes"
       style="font-size:2.5px;fill:black;"><tspan
         x="23.0"
         dy="0"
         id="tspan1">mark distance from document: Left=10.0mm, Top=10.0mm; mark to mark distance: X=195.9mm, Y=237.0mm;</tspan><tspan
         x="23.0"
         dy="3.5"
         id="tspan2">arms=20mm, thickness=1.5mm; Dashed cuts for perforation (48pt cut, 12pt stay)</tspan></text>
  </g>
  <defs
     id="defs1" />
  <path
     id="Path0"
     stroke-width="0.7"
     stroke="#ff0000"
     stroke-opacity="1"
     stroke-dasharray="48, 12"
     fill="none"
     fill-opacity="0"
     stroke-linecap="round"
     stroke-linejoin="round"
     d="M 168.039280,82.056693 L 284.519280,82.056693 c 4.51,0 8.20,3.69 8.20,8.20 L 292.719280,252.416690 c 0,4.51 -3.69,8.20 -8.20,8.20 L 51.559280,260.616690 c -4.51,0 -8.20,-3.69 -8.20,-8.20 L 43.359280,90.256693 c 0,-4.51 3.69,-8.20 8.20,-8.20 L 168.039280,82.056693 z"
     style="stroke-dasharray:208.59999645,0.69999999;stroke-dashoffset:0" />
  <path
     id="Path1"
     stroke-width="0.7"
     stroke="#ff0000"
     stroke-opacity="1"
     stroke-dasharray="48, 12"
     fill="none"
     fill-opacity="0"
     stroke-linecap="round"
     stroke-linejoin="round"
     d="M 441.239590,82.056693 L 557.719590,82.056693 c 4.51,0 8.20,3.69 8.20,8.20 L 565.919590,252.416690 c 0,4.51 -3.69,8.20 -8.20,8.20 L 324.759590,260.616690 c -4.51,0 -8.20,-3.69 -8.20,-8.20 L 316.559590,90.256693 c 0,-4.51 3.69,-8.20 8.20,-8.20 L 441.239590,82.056693 z"
     style="stroke-dasharray:208.59999645,0.69999999;stroke-dashoffset:0" />
  <path
     id="Path2"
     stroke-width="0.7"
     stroke="#ff0000"
     stroke-opacity="1"
     stroke-dasharray="48, 12"
     fill="none"
     fill-opacity="0"
     stroke-linecap="round"
     stroke-linejoin="round"
     d="M 167.685304,277.874470 L 284.165304,277.874470 c 4.51,0 8.20,3.69 8.20,8.20 L 292.365304,448.234470 c 0,4.51 -3.69,8.20 -8.20,8.20 L 51.205304,456.434470 c -4.51,0 -8.20,-3.69 -8.20,-8.20 L 43.005304,286.074470 c 0,-4.51 3.69,-8.20 8.20,-8.20 L 167.685304,277.874470 z"
     style="stroke-dasharray:208.59999645,0.69999999;stroke-dashoffset:0" />
  <path
     id="Path3"
     stroke-width="0.7"
     stroke="#ff0000"
     stroke-opacity="1"
     stroke-dasharray="48, 12"
     fill="none"
     fill-opacity="0"
     stroke-linecap="round"
     stroke-linejoin="round"
     d="M 439.113570,276.456370 L 555.593570,276.456370 c 4.51,0 8.20,3.69 8.20,8.20 L 563.793570,446.816370 c 0,4.51 -3.69,8.20 -8.20,8.20 L 322.633570,455.016370 c -4.51,0 -8.20,-3.69 -8.20,-8.20 L 314.433570,284.656370 c 0,-4.51 3.69,-8.20 8.20,-8.20 L 439.113570,276.456370 z"
     style="stroke-dasharray:208.59999645,0.69999999;stroke-dashoffset:0" />
  <path
     id="Path4"
     stroke-width="0.7"
     stroke="#ff0000"
     stroke-opacity="1"
     stroke-dasharray="48, 12"
     fill="none"
     fill-opacity="0"
     stroke-linecap="round"
     stroke-linejoin="round"
     d="M 166.976288,472.524020 L 283.456288,472.524020 c 4.51,0 8.20,3.69 8.20,8.20 L 291.656288,642.884020 c 0,4.51 -3.69,8.20 -8.20,8.20 L 50.496288,651.084020 c -4.51,0 -8.20,-3.69 -8.20,-8.20 L 42.296288,480.724020 c 0,-4.51 3.69,-8.20 8.20,-8.20 L 166.976288,472.524020 z"
     style="stroke-dasharray:208.59999645,0.69999999;stroke-dashoffset:0" />
  <path
     id="Path5"
     stroke-width="0.7"
     stroke="#ff0000"
     stroke-opacity="1"
     stroke-dasharray="48, 12"
     fill="none"
     fill-opacity="0"
     stroke-linecap="round"
     stroke-linejoin="round"
     d="M 439.113520,471.211690 L 555.593520,471.211690 c 4.51,0 8.20,3.69 8.20,8.20 L 563.793520,643.011690 c 0,4.51 -3.69,8.20 -8.20,8.20 L 322.633520,651.211690 c -4.51,0 -8.20,-3.69 -8.20,-8.20 L 314.433520,479.411690 c 0,-4.51 3.69,-8.20 8.20,-8.20 L 439.113520,471.211690 z"
     style="stroke-dasharray:208.59999645,0.69999999;stroke-dashoffset:0" />
</svg>
