<?xml version="1.0" encoding="UTF-8" standalone="no"?>
<svg
   width="215.89999mm"
   height="279.39999mm"
   viewBox="0 0 611.99998 791.99998"
   version="1.1"
   id="svg1"
   sodipodi:docname="inkscape_3x2_portrait_v1.0_uniform.svg"
   inkscape:version="1.4.4 (dcaf3e7d9e, 2026-05-05)"
   xmlns:inkscape="http://www.inkscape.org/namespaces/inkscape"
   xmlns:sodipodi="http://sodipodi.sourceforge.net/DTD/sodipodi-0.dtd"
   xmlns="http://www.w3.org/2000/svg"
   xmlns:svg="http://www.w3.org/2000/svg">
  <sodipodi:namedview
     id="namedview1"
     pagecolor="#ffffff"
     bordercolor="#000000"
     borderopacity="0.25"
     inkscape:showpageshadow="2"
     inkscape:pageopacity="0.0"
     inkscape:pagecheckerboard="true"
     inkscape:deskcolor="#d1d1d1"
     inkscape:document-units="pt"
     showgrid="true"
     inkscape:zoom="2.8351196"
     inkscape:cx="604.91275"
     inkscape:cy="777.03953"
     inkscape:window-width="1916"
     inkscape:window-height="1141"
     inkscape:window-x="0"
     inkscape:window-y="0"
     inkscape:window-maximized="0"
     inkscape:current-layer="svg1">
    <inkscape:grid
       id="grid1"
       units="in"
       originx="0"
       originy="0"
       spacingx="9"
       spacingy="9"
       empcolor="#0099e5"
       empopacity="0.30196078"
       color="#0099e5"
       opacity="0.14901961"
       empspacing="5"
       enabled="true"
       visible="true" />
  </sodipodi:namedview>
  <g
     inkscape:groupmode="layer"
     id="regmark"
     inkscape:label="Regmarks"
     transform="scale(2.83465, 2.83465)"
     sodipodi:insensitive="true">
    <rect
       x="10.0"
       y="10.0"
       width="5"
       height="5"
       id="regmark-tl"
       style="fill:black" />
    <path
       d="M 185.9 10 L 205.9 10 L 205.9 30"
       id="regmark-tr"
       style="fill:none;stroke:black;stroke-width:1.5" />
    <path
       d="M 30 247 L 10 247 L 10 227"
       id="regmark-bl"
       style="fill:none;stroke:black;stroke-width:1.5" />
    <path
       d="M 10 30 L 30 30 L 30 10 L 185.9 10 L 185.9 30 L 205.9 30 L 205.9 247 L 30 247 L 30 227 L 10 227 Z"
       id="regmark-safe-area"
       style="fill:white;stroke:none" />
    <text
       x="23.0"
       y="255.0"
       id="regmark-notes"
       style="font-size:2.5px;fill:black;"><tspan
         x="23.0"
         dy="0"
         id="tspan1">mark distance from document: Left=10.0mm, Top=10.0mm; mark to mark distance: X=195.9mm, Y=237.0mm;</tspan><tspan
         x="23.0"
         dy="3.5"
         id="tspan2">arms=20mm, thickness=1.5mm; Dashed cuts for perforation (48pt cut, 12pt stay)</tspan></text>
  </g>
  <defs
     id="defs1" />
  <path
     id="Path0"
     d="M 168.12,80.64 L 284.60,80.64 c 4.51,0 8.20,3.69 8.20,8.20 L 292.80,251.00 c 0,4.51 -3.69,8.20 -8.20,8.20 L 51.64,259.20 c -4.51,0 -8.20,-3.69 -8.20,-8.20 L 43.44,88.84 c 0,-4.51 3.69,-8.20 8.20,-8.20 L 168.12,80.64 z"
     style="fill:none;fill-opacity:0;stroke:#ff0000;stroke-linecap:round;stroke-linejoin:round;stroke-dasharray:298,1;stroke-dashoffset:0;stroke-opacity:1" />
  <path
     id="Path1"
     d="M 438.84,80.64 L 555.32,80.64 c 4.51,0 8.20,3.69 8.20,8.20 L 563.52,251.00 c 0,4.51 -3.69,8.20 -8.20,8.20 L 322.36,259.20 c -4.51,0 -8.20,-3.69 -8.20,-8.20 L 314.16,88.84 c 0,-4.51 3.69,-8.20 8.20,-8.20 L 438.84,80.64 z"
     style="fill:none;fill-opacity:0;stroke:#ff0000;stroke-linecap:round;stroke-linejoin:round;stroke-dasharray:298,1;stroke-dashoffset:0;stroke-opacity:1" />
  <path
     id="Path2"
     d="M 168.12,275.04 L 284.60,275.04 c 4.51,0 8.20,3.69 8.20,8.20 L 292.80,445.40 c 0,4.51 -3.69,8.20 -8.20,8.20 L 51.64,453.60 c -4.51,0 -8.20,-3.69 -8.20,-8.20 L 43.44,283.24 c 0,-4.51 3.69,-8.20 8.20,-8.20 L 168.12,275.04 z"
     style="fill:none;fill-opacity:0;stroke:#ff0000;stroke-linecap:round;stroke-linejoin:round;stroke-dasharray:298,1;stroke-dashoffset:0;stroke-opacity:1" />
  <path
     id="Path3"
     d="M 438.84,275.04 L 555.32,275.04 c 4.51,0 8.20,3.69 8.20,8.20 L 563.52,445.40 c 0,4.51 -3.69,8.20 -8.20,8.20 L 322.36,453.60 c -4.51,0 -8.20,-3.69 -8.20,-8.20 L 314.16,283.24 c 0,-4.51 3.69,-8.20 8.20,-8.20 L 438.84,275.04 z"
     style="fill:none;fill-opacity:0;stroke:#ff0000;stroke-linecap:round;stroke-linejoin:round;stroke-dasharray:298,1;stroke-dashoffset:0;stroke-opacity:1" />
  <path
     id="Path4"
     d="M 168.12,469.44 L 284.60,469.44 c 4.51,0 8.20,3.69 8.20,8.20 L 292.80,639.80 c 0,4.51 -3.69,8.20 -8.20,8.20 L 51.64,648.00 c -4.51,0 -8.20,-3.69 -8.20,-8.20 L 43.44,477.64 c 0,-4.51 3.69,-8.20 8.20,-8.20 L 168.12,469.44 z"
     style="fill:none;fill-opacity:0;stroke:#ff0000;stroke-linecap:round;stroke-linejoin:round;stroke-dasharray:298,1;stroke-dashoffset:0;stroke-opacity:1" />
  <path
     id="Path5"
     d="M 438.84,469.44 L 555.32,469.44 c 4.51,0 8.20,3.69 8.20,8.20 L 563.52,639.80 c 0,4.51 -3.69,8.20 -8.20,8.20 L 322.36,648.00 c -4.51,0 -8.20,-3.69 -8.20,-8.20 L 314.16,477.64 c 0,-4.51 3.69,-8.20 8.20,-8.20 L 438.84,469.44 z"
     style="fill:none;fill-opacity:0;stroke:#ff0000;stroke-linecap:round;stroke-linejoin:round;stroke-dasharray:298,1;stroke-dashoffset:0;stroke-opacity:1" />
</svg>
