<?xml version="1.0" encoding="UTF-8" standalone="no"?>
<svg
   width="215.89999mm"
   height="279.39999mm"
   viewBox="0 0 611.99998 791.99998"
   version="1.1"
   id="svg1"
   sodipodi:docname="inkscape_letter_matless_v2.svg"
   inkscape:version="1.4 (e7c3feb100, 2024-10-09)"
   xmlns:inkscape="http://www.inkscape.org/namespaces/inkscape"
   xmlns:sodipodi="http://sodipodi.sourceforge.net/DTD/sodipodi-0.dtd"
   xmlns="http://www.w3.org/2000/svg"
   xmlns:svg="http://www.w3.org/2000/svg">
  <sodipodi:namedview
     id="namedview1"
     pagecolor="#ffffff"
     bordercolor="#000000"
     borderopacity="0.25"
     inkscape:showpageshadow="2"
     inkscape:pageopacity="0.0"
     inkscape:pagecheckerboard="true"
     inkscape:deskcolor="#d1d1d1"
     inkscape:document-units="pt"
     showgrid="true"
     inkscape:zoom="1.125947"
     inkscape:cx="228.69638"
     inkscape:cy="496.91504"
     inkscape:window-width="2556"
     inkscape:window-height="1402"
     inkscape:window-x="2"
     inkscape:window-y="36"
     inkscape:window-maximized="1"
     inkscape:current-layer="svg1">
    <inkscape:grid
       id="grid1"
       units="in"
       originx="0"
       originy="0"
       spacingx="9"
       spacingy="9"
       empcolor="#0099e5"
       empopacity="0.30196078"
       color="#0099e5"
       opacity="0.14901961"
       empspacing="5"
       enabled="true"
       visible="true" />
  </sodipodi:namedview>
  <g
     inkscape:groupmode="layer"
     id="regmark"
     inkscape:label="Regmarks"
     transform="scale(2.83465, 2.83465)"
     sodipodi:insensitive="true">
    <rect
       x="15.0"
       y="15.0"
       width="5"
       height="5"
       id="regmark-tl"
       style="fill:black" />
    <path
       d="M 180.9 15 L 200.9 15 L 200.9 35"
       id="regmark-tr"
       style="fill:none;stroke:black;stroke-width:0.3" />
    <path
       d="M 35 254.4 L 15 254.4 L 15 234.4"
       id="regmark-bl"
       style="fill:none;stroke:black;stroke-width:0.3" />
    <path
       d="M 15 35 L 35 35 L 35 15 L 180.9 15 L 180.9 35 L 200.9 35 L 200.9 254.4 L 35 254.4 L 35 234.4 L 15 234.4 Z"
       id="regmark-safe-area"
       style="fill:white;stroke:none" />
    <text
       x="38.0"
       y="261.9"
       id="regmark-notes"
       style="font-size:2.5px;">mark distance from document: Left=15.0mm, Top=15.0mm; mark to mark distance: X=185.9mm, Y=239.4mm; </text>
  </g>
  <defs
     id="defs1" />
  <path
     id="Path0"
     stroke-width="0.7"
     stroke="#ff0000"
     stroke-opacity="1"
     fill="none"
     fill-opacity="0"
     stroke-linecap="round"
     stroke-linejoin="round"
     d="m 310.4,276.9 c 0,4.5 3.7,8.2 8.2,8.2 0,0 232.7,0 232.7,0 4.5,0 8.2,-3.7 8.2,-8.2 0,0 0,-162.1 0,-162.1 0,-4.5 -3.7,-8.2 -8.2,-8.2 0,0 -232.7,0 -232.7,0 -4.5,0 -8.2,3.7 -8.2,8.2 z" />
  <path
     id="Path3"
     stroke-width="0.7"
     stroke="#ff0000"
     stroke-opacity="1"
     fill="none"
     fill-opacity="0"
     stroke-linecap="round"
     stroke-linejoin="round"
     d="m 310.4,464.95 c 0,4.6 3.7,8.3 8.2,8.3 0,0 232.7,0 232.7,0 4.5,0 8.2,-3.7 8.2,-8.3 0,0 0,-162.1 0,-162.1 0,-4.5 -3.7,-8.2 -8.2,-8.2 0,0 -232.7,0 -232.7,0 -4.5,0 -8.2,3.7 -8.2,8.2 z" />
  <path
     id="Path4"
     stroke-width="0.7"
     stroke="#ff0000"
     stroke-opacity="1"
     fill="none"
     fill-opacity="0"
     stroke-linecap="round"
     stroke-linejoin="round"
     d="m 310.4,653.1 c 0,4.6 3.7,8.3 8.2,8.3 0,0 232.7,0 232.7,0 4.5,0 8.2,-3.7 8.2,-8.3 0,0 0,-162 0,-162 0,-4.6 -3.7,-8.3 -8.2,-8.3 0,0 -232.7,0 -232.7,0 -4.5,0 -8.2,3.7 -8.2,8.3 z" />
  <path
     id="Path1"
     stroke-width="0.7"
     stroke="#ff0000"
     stroke-opacity="1"
     fill="none"
     fill-opacity="0"
     stroke-linecap="round"
     stroke-linejoin="round"
     d="m 52.5,276.9 c 0,4.5 3.7,8.2 8.2,8.2 0,0 232.7,0 232.7,0 4.5,0 8.2,-3.7 8.2,-8.2 0,0 0,-162.1 0,-162.1 0,-4.5 -3.7,-8.2 -8.2,-8.2 0,0 -232.7,0 -232.7,0 -4.5,0 -8.2,3.7 -8.2,8.2 z" />
  <path
     id="Path2"
     stroke-width="0.7"
     stroke="#ff0000"
     stroke-opacity="1"
     fill="none"
     fill-opacity="0"
     stroke-linecap="round"
     stroke-linejoin="round"
     d="m 52.5,464.95 c 0,4.6 3.7,8.3 8.2,8.3 0,0 232.7,0 232.7,0 4.5,0 8.2,-3.7 8.2,-8.3 0,0 0,-162.1 0,-162.1 0,-4.5 -3.7,-8.2 -8.2,-8.2 0,0 -232.7,0 -232.7,0 -4.5,0 -8.2,3.7 -8.2,8.2 z" />
  <path
     id="Path5"
     stroke-width="0.7"
     stroke="#ff0000"
     stroke-opacity="1"
     fill="none"
     fill-opacity="0"
     stroke-linecap="round"
     stroke-linejoin="round"
     d="m 52.5,653.1 c 0,4.6 3.7,8.3 8.2,8.3 0,0 232.7,0 232.7,0 4.5,0 8.2,-3.7 8.2,-8.3 0,0 0,-162 0,-162 0,-4.6 -3.7,-8.3 -8.2,-8.3 0,0 -232.7,0 -232.7,0 -4.5,0 -8.2,3.7 -8.2,8.3 z" />
</svg>
